<svg xmlns="http://www.w3.org/2000/svg" xmlns:xlink="http://www.w3.org/1999/xlink" viewBox="0 0 473.2 88.72"><defs><style>.cls-1{fill:url(#linear-gradient);}.cls-2{fill:url(#linear-gradient-2);}.cls-3{fill:url(#linear-gradient-3);}.cls-4{fill:url(#linear-gradient-4);}.cls-5{fill:url(#linear-gradient-5);}.cls-6{fill:url(#linear-gradient-6);}.cls-7{fill:url(#linear-gradient-7);}.cls-8{fill:url(#linear-gradient-8);}</style><linearGradient id="linear-gradient" x1="289.48" y1="400.19" x2="289.48" y2="487.41" gradientUnits="userSpaceOnUse"><stop offset="0" stop-color="#f8763e"/><stop offset="1" stop-color="#f8425c"/></linearGradient><linearGradient id="linear-gradient-2" x1="340.35" y1="433.83" x2="340.35" y2="484.64" xlink:href="#linear-gradient"/><linearGradient id="linear-gradient-3" x1="393.81" y1="434.52" x2="393.81" y2="484.64" xlink:href="#linear-gradient"/><linearGradient id="linear-gradient-4" x1="442.09" y1="433.83" x2="442.09" y2="484.64" xlink:href="#linear-gradient"/><linearGradient id="linear-gradient-5" x1="500.68" y1="433.95" x2="500.68" y2="483.49" xlink:href="#linear-gradient"/><linearGradient id="linear-gradient-6" x1="563.13" y1="398.69" x2="563.13" y2="483.49" xlink:href="#linear-gradient"/><linearGradient id="linear-gradient-7" x1="696.78" y1="433.14" x2="696.78" y2="483.49" xlink:href="#linear-gradient"/><linearGradient id="linear-gradient-8" x1="633.83" y1="433.14" x2="633.83" y2="485.36" xlink:href="#linear-gradient"/></defs><title>FinalLOGO</title><g id="Layer_3" data-name="Layer 3"><path class="cls-1" d="M326.24,400.19l-36.76,87.22-36.75-87.22H266l24,60,23.16-60Z" transform="translate(-252.73 -398.69)"/><path class="cls-2" d="M366.91,435.79v47.7H356.2v-7.83a24.64,24.64,0,0,1-7.38,6.16,21.3,21.3,0,0,1-10.94,2.82,25.46,25.46,0,0,1-12.27-2.93,21.41,21.41,0,0,1-8.65-8.59,30.19,30.19,0,0,1,.12-27.13,23.16,23.16,0,0,1,8.87-9,24.7,24.7,0,0,1,12.39-3.17,20.57,20.57,0,0,1,10.6,2.65,21.74,21.74,0,0,1,7.26,6.91l.8-7.6Zm-16.07,36.7a14.66,14.66,0,0,0,5.36-8.93v-9.45a14.78,14.78,0,0,0-5.77-8.24,16.66,16.66,0,0,0-10-3.17,15.57,15.57,0,0,0-7.89,2.08,15.19,15.19,0,0,0-5.76,5.82,16.81,16.81,0,0,0-2.13,8.47,16.76,16.76,0,0,0,8.06,14.45,15.21,15.21,0,0,0,8.07,2.25A15.9,15.9,0,0,0,350.84,472.49Z" transform="translate(-252.73 -398.69)"/><path class="cls-3" d="M407.41,483.15a28.33,28.33,0,0,1-9.05,1.49,28.92,28.92,0,0,1-13.65-3.11,22.38,22.38,0,0,1-9.22-8.81,26,26,0,0,1-3.28-13.19,24.67,24.67,0,0,1,3.46-13.08,23.92,23.92,0,0,1,9.21-8.82,25.83,25.83,0,0,1,12.45-3.11q10.94,0,18.09,6l-5.42,7a23.2,23.2,0,0,0-5.3-2.93,17,17,0,0,0-6.45-1.22,14.73,14.73,0,0,0-7.78,2.14,15.18,15.18,0,0,0-5.53,5.82,16.78,16.78,0,0,0-2,8.18,16.52,16.52,0,0,0,26.62,12.79l5.53,6.68A24.09,24.09,0,0,1,407.41,483.15Z" transform="translate(-252.73 -398.69)"/><path class="cls-4" d="M468.65,435.79v47.7H457.93v-7.83a24.71,24.71,0,0,1-7.37,6.16,21.36,21.36,0,0,1-10.95,2.82,25.51,25.51,0,0,1-12.27-2.93,21.32,21.32,0,0,1-8.64-8.59,27.12,27.12,0,0,1-3.17-13.48A27.41,27.41,0,0,1,418.81,446a23.19,23.19,0,0,1,8.88-9,24.66,24.66,0,0,1,12.38-3.17,20.54,20.54,0,0,1,10.6,2.65,21.56,21.56,0,0,1,7.26,6.91l.81-7.6Zm-16.07,36.7a14.65,14.65,0,0,0,5.35-8.93v-9.45a14.71,14.71,0,0,0-5.76-8.24,16.68,16.68,0,0,0-10-3.17,15.58,15.58,0,0,0-7.9,2.08,15.26,15.26,0,0,0-5.76,5.82,16.81,16.81,0,0,0-2.13,8.47,16.74,16.74,0,0,0,8.07,14.45,15.18,15.18,0,0,0,8.06,2.25A15.91,15.91,0,0,0,452.58,472.49Z" transform="translate(-252.73 -398.69)"/><path class="cls-5" d="M518.77,437.92a13.65,13.65,0,0,1,4.49,10.32v35.25H512.43V451.92a9.66,9.66,0,0,0-2.42-6.34c-1.46-1.53-3.65-2.34-6.57-2.41A13,13,0,0,0,493,448.24q-4.15,5.07-4.15,12.9v22.35H478.09v-47.7h9.68l.7,9.22a18.62,18.62,0,0,1,7.6-8.12A22.78,22.78,0,0,1,507.71,434,15.83,15.83,0,0,1,518.77,437.92Z" transform="translate(-252.73 -398.69)"/><path class="cls-6" d="M588.3,446.91a18.8,18.8,0,0,1,3.75,11.58q0,12.9-8.47,18.95t-21.15,6.05H534.21v-84.8h24.88q13.49,0,21.2,5.47T588,420a22.55,22.55,0,0,1-2.65,11.12,20.16,20.16,0,0,1-7.49,7.66A26.69,26.69,0,0,1,588.3,446.91Zm-37.39-13.54h10.14a9.13,9.13,0,0,0,7.15-2.82,10.1,10.1,0,0,0,2.53-7,7.77,7.77,0,0,0-2.88-6.51q-2.88-2.25-8-2.25h-9Zm20.22,32.2a7.88,7.88,0,0,0,3.63-7.08q0-9-14.28-9h-9.57v18.44h10.72A17.12,17.12,0,0,0,571.13,465.57Z" transform="translate(-252.73 -398.69)"/><path class="cls-7" d="M706.46,483.49,694.82,468.4l-10.6,15.09h-16l18.67-25.35-19.24-25h19.82l11.06,14.52,8.64-14.52h16l-17.28,24.08,20,26.27Z" transform="translate(-252.73 -398.69)"/><path class="cls-8" d="M594.17,456.59c2.82-5.16,5.53-10.18,8.29-15.17a1.9,1.9,0,0,1,1.09-.81q14.61-3.74,29.24-7.39a3.72,3.72,0,0,1,1.69,0q15.1,3.67,30.2,7.41a2.33,2.33,0,0,1,1.41,1c2.45,5,4.83,9.95,7.22,14.93a3.13,3.13,0,0,1,.17.58l-7.42-.37v22.74c-3.7.7-7.17,1.35-10.65,2-6.88,1.28-13.76,2.6-20.66,3.78a11.6,11.6,0,0,1-3.91-.32q-14.24-2.66-28.47-5.39c-.38-.07-.76-.18-1.19-.29V459.73c1.61-.15,3.22-.32,4.83-.45,6.72-.56,13.44-1.12,20.16-1.62a1.67,1.67,0,0,0,1.68-1.13c1.54-3.53,3.16-7,4.76-10.52.17-.38.37-.75.56-1.13l.37.05V479.3c2.35-.36,4.39-.67,6.43-1,6.43-1,12.86-2.1,19.3-3.11.7-.12,1-.33,1-1.07q0-8.56,0-17.13a4,4,0,0,0-.1-.53c-2-.13-4-.27-6-.39-3.14-.18-6.28-.39-9.43-.5a1.71,1.71,0,0,1-1.71-1.11c-2.91-5.71-5.87-11.41-8.81-17.1-.2-.38-.42-.75-.72-1.31-.42.8-.77,1.45-1.1,2.11-2.49,4.94-4.95,9.89-7.48,14.8a1.86,1.86,0,0,1-1.21,1c-9.62.95-19.25,1.84-28.87,2.73A4.27,4.27,0,0,1,594.17,456.59Z" transform="translate(-252.73 -398.69)"/></g></svg>