<svg xmlns="http://www.w3.org/2000/svg" width="48" height="48" viewBox="0 0 48 48">
  <g id="Circle_Button_" data-name="Circle Button " transform="translate(-0.188 0.28)">
    <rect id="Area_SIZE:MEDIUM_STATE:DEFAULT_STYLE:STYLE3_" data-name="Area [SIZE:MEDIUM][STATE:DEFAULT][STYLE:STYLE3]" width="48" height="48" rx="24" transform="translate(0.188 -0.28)" fill="rgba(252,252,252,0)"/>
    <g id="Icon_" data-name="Icon " transform="translate(14 14)">
      <rect id="Area_ICON:feather_youtube_SIZE:MEDIUM_STATE:DEFAULT_STYLE:STYLE3_" data-name="Area [ICON:feather/youtube][SIZE:MEDIUM][STATE:DEFAULT][STYLE:STYLE3]" width="20" height="20" transform="translate(0.188 -0.28)" fill="rgba(253,73,198,0.35)" opacity="0"/>
      <g id="Icon" transform="translate(0.833 3.333)">
        <path id="Path" d="M18.783,5.35a2.316,2.316,0,0,0-1.616-1.667A60.022,60.022,0,0,0,10,3.333a54.752,54.752,0,0,0-7.167.384A2.315,2.315,0,0,0,1.217,5.383,24.145,24.145,0,0,0,.833,9.792a24.132,24.132,0,0,0,.384,4.441,2.316,2.316,0,0,0,1.616,1.6A54.752,54.752,0,0,0,10,16.217a54.752,54.752,0,0,0,7.167-.384,2.315,2.315,0,0,0,1.616-1.666,24.131,24.131,0,0,0,.384-4.375A24.143,24.143,0,0,0,18.783,5.35Z" transform="translate(-0.833 -3.333)" fill="none" stroke="#3f3f3f" stroke-linecap="round" stroke-linejoin="round" stroke-width="1.667"/>
        <path id="Path-2" data-name="Path" d="M8.125,12.517l4.792-2.725L8.125,7.067Z" transform="translate(-0.833 -3.333)" fill="none" stroke="#3f3f3f" stroke-linecap="round" stroke-linejoin="round" stroke-width="1.667"/>
      </g>
    </g>
  </g>
</svg>
